<svg width="14" height="20" viewBox="0 0 14 20" xmlns="http://www.w3.org/2000/svg"><title>Shape</title><path d="M9.5 2h.005H9.5zm0 0L7 8l5 2.898L4.5 18 7 12 2 9.1 9.5 2zm0-2c-.562.012-1.03.22-1.38.55L.625 7.647c-.458.435-.685 1.06-.61 1.686.072.626.437 1.182.982 1.498l3.482 2.02-1.826 4.382c-.362.87-.066 1.88.712 2.416.344.236.74.354 1.135.354.497 0 .992-.186 1.374-.548l7.5-7.103c.458-.433.685-1.057.61-1.684-.073-.627-.438-1.183-.982-1.498L9.52 7.15l1.79-4.293c.122-.26.19-.55.19-.857 0-1.102-.89-1.996-2-2z" fill="#DA5A47" fill-rule="evenodd"/></svg>